<svg width="61" height="54" viewBox="0 0 61 54" fill="none" xmlns="http://www.w3.org/2000/svg">
<g clip-path="url(#clip0_376_9122)">
<path d="M44.0653 0C41.4218 0.00197294 38.8158 0.630311 36.4585 1.83415C34.1011 3.03798 32.0586 4.78349 30.4961 6.92938C28.9337 4.78349 26.8911 3.03798 24.5338 1.83415C22.1764 0.630311 19.5705 0.00197294 16.927 0C7.57726 0 -0.003859 7.72173 -0.003859 17.2486C-0.00975296 19.7783 0.535821 22.2786 1.5944 24.5731C2.65298 26.8677 4.1988 28.9006 6.12289 30.5286L27.8097 52.8745C28.1527 53.2312 28.5634 53.5148 29.0174 53.7085C29.4714 53.9021 29.9595 54.0019 30.4527 54.0019C30.9458 54.0019 31.4339 53.9021 31.888 53.7085C32.342 53.5148 32.7527 53.2312 33.0956 52.8745L54.8727 30.5286C56.7968 28.9006 58.3426 26.8677 59.4012 24.5731C60.4598 22.2786 61.0054 19.7783 60.9995 17.2486C60.9995 7.72173 53.4267 0 44.0653 0ZM30.4527 43.1122L18.2259 30.5286H18.3112L12.6007 24.4404C10.8639 22.8916 9.72953 20.773 9.3994 18.4615L9.37934 18.3101C9.37934 18.2579 9.36597 18.2058 9.36095 18.152C9.3254 17.8533 9.30753 17.5527 9.30746 17.2519C9.30746 17.2334 9.30746 17.2166 9.30746 17.1981C9.30746 17.1796 9.30746 17.1661 9.30746 17.1493C9.30746 11.5877 14.05 7.08078 19.9026 7.08078C24.7305 7.08078 26.5744 11.1536 29.2641 14.715C29.9595 15.6352 31.1297 15.6588 31.8753 14.7823C34.7389 11.4093 36.3053 7.08247 41.0863 7.08247C46.7935 7.08247 51.4508 11.4144 51.6698 16.8398C51.6781 16.976 51.6815 17.114 51.6815 17.2519C51.6815 17.3899 51.6815 17.5278 51.6698 17.6641C51.531 21.0136 49.6922 22.7766 46.989 25.6987L42.6778 30.532L30.4527 43.1122Z" fill="#A41919"/>
</g>
<defs>
<clipPath id="clip0_376_9122">
<rect width="61" height="54" fill="white"/>
</clipPath>
</defs>
</svg>
