<svg width="109" height="111" viewBox="0 0 109 111" fill="none" xmlns="http://www.w3.org/2000/svg">
<ellipse cx="54.5" cy="55.5" rx="54.5" ry="55.5" fill="#A41919"/>
<g clip-path="url(#clip0_220_1297)">
<path d="M58.5243 26.5572C58.5243 24.4373 56.7229 22.7188 54.5007 22.7188C52.2785 22.7188 50.4771 24.4373 50.4771 26.5572V85.1531C50.4771 87.273 52.2785 88.9915 54.5007 88.9915C56.7229 88.9915 58.5243 87.273 58.5243 85.1531V26.5572Z" fill="#DFDFDE"/>
<path d="M57.351 22.176C55.7783 20.6757 53.2284 20.6757 51.6557 22.176C50.083 23.6763 50.083 26.1088 51.6557 27.6091L74.125 49.0443C75.6977 50.5446 78.2476 50.5446 79.8203 49.0443C81.393 47.544 81.393 45.1115 79.8203 43.6112L57.351 22.176Z" fill="#DFDFDE"/>
<path d="M29.18 43.6142C27.6073 45.1145 27.607 47.5467 29.1794 49.0467C30.7517 50.5467 33.3013 50.5464 34.874 49.0461L57.3433 27.611C58.916 26.1107 58.9163 23.6784 57.3439 22.1784C55.7715 20.6785 53.222 20.6787 51.6493 22.179L29.18 43.6142Z" fill="#DFDFDE"/>
</g>
<defs>
<clipPath id="clip0_220_1297">
<rect width="53" height="67.9397" fill="white" transform="translate(28 21.0518)"/>
</clipPath>
</defs>
</svg>
