<svg id="Capa_1" data-name="Capa 1" xmlns="http://www.w3.org/2000/svg" viewBox="0 0 449.05 568.53">
  <circle cx="224.53" cy="224.53" r="224.53" style="fill: #a41b1a"/>
  <g>
    <path d="M112.06,346H417.43l4.25-22.28A17.45,17.45,0,0,0,404.54,303H126.88a18.31,18.31,0,0,0-18.11,21Z" transform="translate(-108.57 -78.47)" style="fill: #00454a"/>
    <path d="M114.45,362l36.82,246.62A45,45,0,0,0,195.81,647H322.75A45,45,0,0,0,367,610.41L414.38,362Z" transform="translate(-108.57 -78.47)" style="fill: #00454a"/>
  </g>
  <path d="M230,144.11s-18.46,26.78-21,36.36c-3.2,12.28,10.72,35.89,12.07,48C222.6,241.86,208,280.68,208,280.68c-1.45,2.21-2.44,4.53-5.83,4.53l-2.68.09c-3.39,0-.7-4.37-.7-6.59,0,0,9.6-29.73,8.4-49.84-1-16.59-17.31-33.39-12.33-49.32,3-9.7,23.76-36.41,23.76-36.41A9.43,9.43,0,0,1,224.5,141l2.13.14C229.7,141.31,230.64,142.2,230,144.11Z" transform="translate(-108.57 -78.47)" style="fill: #00454a"/>
  <path d="M285.7,144.11s-18.46,26.78-21,36.36c-3.2,12.28,10.72,35.89,12.07,48,1.49,13.37-13.16,52.19-13.16,52.19-1.45,2.21-2.43,4.53-5.82,4.53l-2.68.09c-3.39,0-.71-4.37-.71-6.59,0,0,9.6-29.73,8.4-49.84-1-16.59-17.31-33.39-12.33-49.32,3-9.7,23.76-36.41,23.76-36.41a9.45,9.45,0,0,1,5.93-2.14l2.14.14C285.4,141.31,286.33,142.2,285.7,144.11Z" transform="translate(-108.57 -78.47)" style="fill: #00454a"/>
  <path d="M336.51,144.11s-18.46,26.78-21,36.36c-3.2,12.28,10.72,35.89,12.07,48,1.49,13.37-13.16,52.19-13.16,52.19-1.45,2.21-2.44,4.53-5.82,4.53l-2.69.09c-3.38,0-.7-4.37-.7-6.59,0,0,9.6-29.73,8.4-49.84-1-16.59-17.31-33.39-12.33-49.32,3-9.7,23.76-36.41,23.76-36.41A9.45,9.45,0,0,1,331,141l2.14.14C336.21,141.31,337.15,142.2,336.51,144.11Z" transform="translate(-108.57 -78.47)" style="fill: #00454a"/>
</svg>
