<svg id="Capa_1" data-name="Capa 1" xmlns="http://www.w3.org/2000/svg" viewBox="0 0 437.4 392.13">
  <circle cx="263.23" cy="174.17" r="174.17" style="fill: #a41b1a"/>
  <g>
    <path d="M102.68,430.44c14.53,55.93,61.28,101.25,122.45,120.5h131.6c61.17-19.25,107.93-64.57,122.46-120.5Z" transform="translate(-98.61 -158.81)" style="fill: #00454a"/>
    <path d="M481.13,421.94a144.64,144.64,0,0,0,2.12-14.5H98.61a144.64,144.64,0,0,0,2.12,14.5Z" transform="translate(-98.61 -158.81)" style="fill: #00454a"/>
  </g>
  <path d="M451.49,307l-2.2-2.32a4,4,0,0,0-5.65,0s-60.41,58-110.71,106.85h11.68c50.11-46.27,106.52-98.93,106.52-98.93A4,4,0,0,0,451.49,307Z" transform="translate(-98.61 -158.81)" style="fill: #00454a"/>
  <path d="M471.56,322.12l-2-2.49a4,4,0,0,0-5.65-.39s-59.81,48.9-112.4,92.38h13.16c51.47-40.5,106.08-83.9,106.08-83.9A4,4,0,0,0,471.56,322.12Z" transform="translate(-98.61 -158.81)" style="fill: #00454a"/>
  <path d="M244.81,229.11s-18.46,26.78-21,36.36c-3.21,12.28,10.71,35.89,12.06,48,1.49,13.37-13.16,52.19-13.16,52.19-1.45,2.21-2.43,4.53-5.82,4.53l-2.68.09c-3.39,0-.71-4.37-.71-6.59,0,0,9.6-29.73,8.4-49.84-1-16.59-17.3-33.39-12.33-49.32,3-9.7,23.76-36.41,23.76-36.41A9.48,9.48,0,0,1,239.3,226l2.14.14C244.51,226.31,245.44,227.2,244.81,229.11Z" transform="translate(-98.61 -158.81)" style="fill: #00454a"/>
  <path d="M300.5,229.11s-18.46,26.78-21,36.36c-3.2,12.28,10.72,35.89,12.07,48,1.49,13.37-13.16,52.19-13.16,52.19-1.45,2.21-2.44,4.53-5.83,4.53l-2.68.09c-3.39,0-.71-4.37-.71-6.59,0,0,9.6-29.73,8.4-49.84-1-16.59-17.3-33.39-12.32-49.32,3-9.7,23.76-36.41,23.76-36.41A9.43,9.43,0,0,1,295,226l2.13.14C300.2,226.31,301.14,227.2,300.5,229.11Z" transform="translate(-98.61 -158.81)" style="fill: #00454a"/>
  <path d="M351.32,229.11s-18.46,26.78-21,36.36c-3.21,12.28,10.71,35.89,12.07,48,1.49,13.37-13.16,52.19-13.16,52.19-1.45,2.21-2.44,4.53-5.83,4.53l-2.68.09c-3.39,0-.71-4.37-.71-6.59,0,0,9.6-29.73,8.4-49.84-1-16.59-17.3-33.39-12.33-49.32,3-9.7,23.77-36.41,23.77-36.41a9.42,9.42,0,0,1,5.92-2.14l2.14.14C351,226.31,352,227.2,351.32,229.11Z" transform="translate(-98.61 -158.81)" style="fill: #00454a"/>
</svg>
