<svg id="Capa_1" data-name="Capa 1" xmlns="http://www.w3.org/2000/svg" viewBox="0 0 529.65 529.65">
  <circle cx="264.83" cy="264.83" r="264.83" style="fill: #a41b1a"/>
  <g>
    <path d="M207.37,283H418.84l2.94-15.43a12.09,12.09,0,0,0-11.87-14.35H217.63a12.68,12.68,0,0,0-12.54,14.55Z" transform="translate(-48.65 -29.22)" style="fill: #bed7d5"/>
    <path d="M209,294l25.5,170.79a31.18,31.18,0,0,0,30.84,26.57h87.91a31.18,31.18,0,0,0,30.63-25.33l32.82-172Z" transform="translate(-48.65 -29.22)" style="fill: #bed7d5"/>
  </g>
  <path d="M289,143.15s-12.78,18.55-14.51,25.19c-2.22,8.49,7.42,24.85,8.35,33.25,1,9.26-9.11,36.14-9.11,36.14-1,1.53-1.69,3.13-4,3.13l-1.86.07c-2.35,0-.49-3-.49-4.57,0,0,6.65-20.58,5.82-34.51-.69-11.49-12-23.12-8.54-34.15,2.1-6.72,16.45-25.22,16.45-25.22a6.6,6.6,0,0,1,4.11-1.48l1.48.1C288.83,141.21,289.48,141.83,289,143.15Z" transform="translate(-48.65 -29.22)" style="fill: #bed7d5"/>
  <path d="M327.61,143.15s-12.78,18.55-14.52,25.19c-2.21,8.49,7.43,24.85,8.36,33.25,1,9.26-9.11,36.14-9.11,36.14-1,1.53-1.69,3.13-4,3.13l-1.85.07c-2.35,0-.49-3-.49-4.57,0,0,6.65-20.58,5.81-34.51-.68-11.49-12-23.12-8.53-34.15,2.1-6.72,16.45-25.22,16.45-25.22A6.58,6.58,0,0,1,323.8,141l1.48.1C327.4,141.21,328.05,141.83,327.61,143.15Z" transform="translate(-48.65 -29.22)" style="fill: #bed7d5"/>
  <path d="M362.8,143.15S350,161.7,348.29,168.34c-2.22,8.49,7.42,24.85,8.35,33.25,1,9.26-9.11,36.14-9.11,36.14-1,1.53-1.69,3.13-4,3.13l-1.86.07c-2.35,0-.49-3-.49-4.57,0,0,6.65-20.58,5.82-34.51-.69-11.49-12-23.12-8.54-34.15,2.1-6.72,16.45-25.22,16.45-25.22A6.58,6.58,0,0,1,359,141l1.48.1C362.59,141.21,363.24,141.83,362.8,143.15Z" transform="translate(-48.65 -29.22)" style="fill: #bed7d5"/>
</svg>
