<svg width="103" height="86" viewBox="0 0 103 86" fill="none" xmlns="http://www.w3.org/2000/svg">
<g clip-path="url(#clip0_224_425)">
<path d="M61.9811 75.6364C84.6217 75.6364 102.975 58.7643 102.975 37.9516C102.975 17.1388 84.6217 0.266724 61.9811 0.266724C39.3406 0.266724 20.9868 17.1388 20.9868 37.9516C20.9868 58.7643 39.3406 75.6364 61.9811 75.6364Z" fill="#A41919"/>
<path d="M0.98291 59.0388C4.40283 71.1403 15.4064 80.9461 29.8039 85.1112H60.7785C75.1761 80.9461 86.182 71.1403 89.6019 59.0388H0.98291Z" fill="#00454A"/>
<path d="M90.0585 57.1997C90.2823 56.1624 90.4489 55.1152 90.5574 54.0624H0.0249023C0.133457 55.1152 0.3 56.1624 0.523886 57.1997H90.0585Z" fill="#00454A"/>
<path d="M65.1704 45.0311C69.5601 42.7008 74.8559 42.3957 79.2808 44.6719C83.7058 46.9481 86.1889 51.2582 86.3254 55.9231L87.7141 56.6371C89.0675 50.7129 86.5632 44.6698 81.0202 41.818C75.4773 38.9663 68.5644 40.165 63.7817 44.3236L65.1704 45.0311Z" fill="#00454A"/>
<path d="M69.4167 49.0037C71.7718 48.6809 74.1769 49.0857 76.2547 50.1547C78.3326 51.2237 79.9657 52.8964 80.8981 54.9105L83.746 56.3754C83.4118 52.5327 81.4065 49.1573 77.9442 47.3766C74.4819 45.5959 70.3064 45.7885 66.5664 47.5367L69.4167 49.0037Z" fill="#00454A"/>
<path d="M20.9635 54.0623C24.4799 45.5439 34.043 39.4337 45.2913 39.4337C56.5396 39.4337 66.1026 45.5439 69.6191 54.0623H70.9136C69.5226 43.1076 58.5826 34.5784 45.2913 34.5784C32 34.5784 21.0647 43.1076 19.6689 54.0623H20.9635Z" fill="#00454A"/>
<path d="M27.2173 54.0624C31.082 49.0859 37.7312 45.7906 45.2913 45.7906C52.8513 45.7906 59.5005 49.0816 63.3677 54.0624H65.7402C62.8098 46.8768 54.7625 41.7164 45.2913 41.7164C35.82 41.7164 27.7727 46.8768 24.8447 54.0624H27.2173Z" fill="#00454A"/>
<path d="M35.9354 54.0623C38.8018 52.6131 42.02 51.8531 45.2914 51.8531C48.5627 51.8531 51.781 52.6131 54.6473 54.0623H59.2911C55.9724 50.6329 50.9332 48.4368 45.2914 48.4368C39.6496 48.4368 34.6127 50.6264 31.2939 54.0623H35.9354Z" fill="#00454A"/>
<path d="M5.07142 56.0269C5.09025 51.3663 7.46513 47.0044 11.8312 44.6351C16.1973 42.2659 21.5002 42.4585 25.9534 44.6936L27.3233 43.9514C22.437 39.8945 15.4936 38.8451 10.026 41.8137C4.55832 44.7823 2.20462 50.8795 3.70863 56.7712L5.07142 56.0269Z" fill="#00454A"/>
<path d="M10.9436 54.6508C11.8254 52.6179 13.4159 50.9113 15.4659 49.7985C17.5159 48.6857 19.9097 48.2296 22.272 48.5016L25.0846 46.9741C21.3022 45.308 17.1221 45.202 13.7045 47.0584C10.2869 48.9149 8.37102 52.3292 8.1333 56.1784L10.9436 54.6508Z" fill="#00454A"/>
<path d="M89.0392 20.6465L88.5214 20.1423C88.343 19.9822 88.1029 19.8936 87.8536 19.896C87.6042 19.8985 87.3662 19.9917 87.1916 20.1553C87.1916 20.1553 72.9729 32.7047 61.1338 43.2742H63.8829C75.6773 33.2607 88.9545 21.8668 88.9545 21.8668C89.1415 21.7152 89.2555 21.5015 89.2714 21.2727C89.2873 21.0439 89.2038 20.8187 89.0392 20.6465Z" fill="#00454A"/>
<path d="M93.7629 23.9136L93.2922 23.3749C93.2112 23.2888 93.1124 23.2183 93.0017 23.1673C92.8909 23.1164 92.7703 23.086 92.6468 23.078C92.5233 23.0699 92.3992 23.0844 92.2818 23.1205C92.1643 23.1566 92.0558 23.2136 91.9624 23.2883C91.9624 23.2883 77.8849 33.8709 65.5068 43.2786H68.609C80.7235 34.5157 93.577 25.1253 93.577 25.1253C93.7764 24.9873 93.908 24.7821 93.9429 24.5549C93.9777 24.3277 93.913 24.097 93.7629 23.9136Z" fill="#00454A"/>
</g>
<defs>
<clipPath id="clip0_224_425">
<rect width="102.951" height="84.8444" fill="white" transform="translate(0.0249023 0.266724)"/>
</clipPath>
</defs>
</svg>
