<svg id="Capa_1" data-name="Capa 1" xmlns="http://www.w3.org/2000/svg" viewBox="0 0 470.65 389.08">
  <circle cx="296.48" cy="174.17" r="174.17" style="fill: #a41b1a"/>
  <path d="M373.22,224.79l2.93,2.94c3,3-284.81,295.76-284.81,295.76-3.66,3.66-9.08,4.17-12.1,1.15l-2.93-2.93c-3-3-2.51-8.45,1.15-12.11C77.46,509.6,370.2,221.77,373.22,224.79Z" transform="translate(-74.34 -174.72)" style="fill: #00454a"/>
  <path d="M495.53,262l2.94,2.93c3,3-284.81,295.76-284.81,295.76-3.66,3.66-9.08,4.18-12.11,1.15l-2.93-2.93c-3-3-2.51-8.44,1.15-12.1C199.77,546.8,492.51,259,495.53,262Z" transform="translate(-74.34 -174.72)" style="fill: #00454a"/>
  <circle cx="261.7" cy="88.95" r="55.63" style="fill: #00454a"/>
  <circle cx="177.94" cy="174.17" r="55.63" style="fill: #00454a"/>
  <circle cx="95.29" cy="256.6" r="55.63" style="fill: #00454a"/>
  <circle cx="389.9" cy="126.14" r="55.63" style="fill: #00454a"/>
  <circle cx="306.14" cy="211.36" r="55.63" style="fill: #00454a"/>
  <circle cx="223" cy="293.79" r="55.63" style="fill: #00454a"/>
</svg>
