<svg width="110" height="85" viewBox="0 0 110 85" fill="none" xmlns="http://www.w3.org/2000/svg">
<g clip-path="url(#clip0_224_348)">
<path d="M69.1768 75.4989C91.4751 75.4989 109.551 58.6178 109.551 37.7939C109.551 16.97 91.4751 0.0888672 69.1768 0.0888672C46.8786 0.0888672 28.8022 16.97 28.8022 37.7939C28.8022 58.6178 46.8786 75.4989 69.1768 75.4989Z" fill="#A41919"/>
<path d="M69.7332 10.9282L70.4124 11.5647C71.1078 12.2141 4.3902 75.592 4.3902 75.592C3.54177 76.3843 2.28535 76.4947 1.58528 75.841L0.906077 75.2067C0.210642 74.5572 0.32423 73.3774 1.17266 72.585C1.17266 72.585 69.0331 10.2744 69.7332 10.9282Z" fill="#00454A"/>
<path d="M98.0857 18.9836L98.7673 19.6179C99.4627 20.2673 32.7451 83.6452 32.7451 83.6452C31.8966 84.4375 30.6402 84.5501 29.9378 83.8942L29.2586 83.2598C28.5632 82.6104 28.6768 81.4327 29.5252 80.6404C29.5252 80.6382 97.3857 18.3341 98.0857 18.9836Z" fill="#00454A"/>
<path d="M61.1144 31.3881C68.2365 31.3881 74.0101 25.9963 74.0101 19.3451C74.0101 12.694 68.2365 7.30212 61.1144 7.30212C53.9923 7.30212 48.2188 12.694 48.2188 19.3451C48.2188 25.9963 53.9923 31.3881 61.1144 31.3881Z" fill="#00454A"/>
<path d="M41.6979 49.8369C48.82 49.8369 54.5936 44.445 54.5936 37.7939C54.5936 31.1427 48.82 25.7509 41.6979 25.7509C34.5758 25.7509 28.8022 31.1427 28.8022 37.7939C28.8022 44.445 34.5758 49.8369 41.6979 49.8369Z" fill="#00454A"/>
<path d="M22.5387 67.6817C29.6608 67.6817 35.4344 62.2899 35.4344 55.6387C35.4344 48.9875 29.6608 43.5957 22.5387 43.5957C15.4167 43.5957 9.64307 48.9875 9.64307 55.6387C9.64307 62.2899 15.4167 67.6817 22.5387 67.6817Z" fill="#00454A"/>
<path d="M90.8327 39.4392C97.9548 39.4392 103.728 34.0473 103.728 27.3962C103.728 20.745 97.9548 15.3531 90.8327 15.3531C83.7106 15.3531 77.937 20.745 77.937 27.3962C77.937 34.0473 83.7106 39.4392 90.8327 39.4392Z" fill="#00454A"/>
<path d="M71.4162 57.8879C78.5383 57.8879 84.3118 52.4961 84.3118 45.8449C84.3118 39.1937 78.5383 33.8019 71.4162 33.8019C64.2941 33.8019 58.5205 39.1937 58.5205 45.8449C58.5205 52.4961 64.2941 57.8879 71.4162 57.8879Z" fill="#00454A"/>
<path d="M52.1432 75.7328C59.2653 75.7328 65.0389 70.3409 65.0389 63.6897C65.0389 57.0386 59.2653 51.6467 52.1432 51.6467C45.0211 51.6467 39.2476 57.0386 39.2476 63.6897C39.2476 70.3409 45.0211 75.7328 52.1432 75.7328Z" fill="#00454A"/>
</g>
<defs>
<clipPath id="clip0_224_348">
<rect width="109.102" height="84.2296" fill="white" transform="translate(0.449219 0.0888672)"/>
</clipPath>
</defs>
</svg>
