<svg width="271" height="242" viewBox="0 0 271 242" fill="none" xmlns="http://www.w3.org/2000/svg">
<g clip-path="url(#clip0_376_9086)">
<path d="M163.089 214.975C222.687 214.975 271 166.851 271 107.488C271 48.1239 222.687 0 163.089 0C103.492 0 55.1787 48.1239 55.1787 107.488C55.1787 166.851 103.492 214.975 163.089 214.975Z" fill="#A41919"/>
<path d="M2.52148 167.634C11.5238 202.151 40.4887 230.12 78.3878 242H159.923C197.822 230.12 226.793 202.151 235.796 167.634H2.52148Z" fill="#DFDFDF"/>
<path d="M236.998 162.389C237.587 159.43 238.026 156.443 238.312 153.44H0C0.285753 156.443 0.724147 159.43 1.31349 162.389H236.998Z" fill="#DFDFDF"/>
<path d="M171.485 127.681C183.04 121.034 196.98 120.164 208.628 126.656C220.276 133.148 226.812 145.442 227.172 158.748L230.827 160.784C234.39 143.887 227.797 126.65 213.206 118.516C198.616 110.382 180.419 113.801 167.829 125.663L171.485 127.681Z" fill="#DFDFDF"/>
<path d="M182.662 139.011C188.862 138.091 195.192 139.245 200.662 142.294C206.132 145.343 210.431 150.114 212.885 155.859L220.382 160.037C219.502 149.077 214.223 139.449 205.109 134.37C195.995 129.291 185.004 129.841 175.159 134.827L182.662 139.011Z" fill="#DFDFDF"/>
<path d="M55.1166 153.44C64.373 129.143 89.5461 111.715 119.155 111.715C148.765 111.715 173.938 129.143 183.194 153.44H186.602C182.94 122.194 154.143 97.8664 119.155 97.8664C84.1683 97.8664 55.383 122.194 51.709 153.44H55.1166Z" fill="#DFDFDF"/>
<path d="M71.5793 153.44C81.7526 139.246 99.2555 129.847 119.156 129.847C139.057 129.847 156.56 139.233 166.739 153.44H172.984C165.271 132.945 144.088 118.226 119.156 118.226C94.2245 118.226 73.0414 132.945 65.334 153.44H71.5793Z" fill="#DFDFDF"/>
<path d="M94.5275 153.44C102.073 149.306 110.544 147.139 119.155 147.139C127.767 147.139 136.238 149.306 143.783 153.44H156.007C147.271 143.658 134.006 137.394 119.155 137.394C104.304 137.394 91.0455 143.64 82.3096 153.44H94.5275Z" fill="#DFDFDF"/>
<path d="M13.2833 159.044C13.3329 145.75 19.5844 133.309 31.0774 126.551C42.5704 119.793 56.5293 120.343 68.2516 126.718L71.8575 124.601C58.9952 113.03 40.7179 110.036 26.3253 118.504C11.9327 126.971 5.73695 144.362 9.69601 161.167L13.2833 159.044Z" fill="#DFDFDF"/>
<path d="M28.7414 155.119C31.0625 149.32 35.2492 144.453 40.6456 141.279C46.042 138.105 52.343 136.804 58.5613 137.579L65.9652 133.222C56.0087 128.47 45.0051 128.168 36.009 133.463C27.0128 138.758 21.9695 148.497 21.3438 159.476L28.7414 155.119Z" fill="#DFDFDF"/>
<path d="M234.316 58.1286L232.953 56.6907C232.483 56.2339 231.851 55.9813 231.195 55.9882C230.538 55.9952 229.912 56.2611 229.452 56.7277C229.452 56.7277 192.024 92.522 160.859 122.669H168.096C199.143 94.108 234.093 61.6093 234.093 61.6093C234.585 61.1769 234.885 60.5675 234.927 59.9149C234.969 59.2624 234.749 58.6199 234.316 58.1286Z" fill="#DFDFDF"/>
<path d="M246.75 67.4475L245.511 65.9108C245.298 65.6653 245.038 65.4641 244.747 65.3188C244.455 65.1735 244.138 65.0868 243.812 65.0639C243.487 65.041 243.161 65.0822 242.852 65.1851C242.542 65.2881 242.257 65.4508 242.011 65.6639C242.011 65.6639 204.954 95.8484 172.371 122.682H180.537C212.426 97.6875 246.261 70.9035 246.261 70.9035C246.786 70.5098 247.132 69.9245 247.224 69.2764C247.316 68.6284 247.146 67.9705 246.75 67.4475Z" fill="#DFDFDF"/>
</g>
<defs>
<clipPath id="clip0_376_9086">
<rect width="271" height="242" fill="white"/>
</clipPath>
</defs>
</svg>
