<svg width="72" height="82" viewBox="0 0 72 82" fill="none" xmlns="http://www.w3.org/2000/svg">
<g clip-path="url(#clip0_224_43)">
<path d="M36.3236 66.7936C55.8563 66.7936 71.6907 51.8745 71.6907 33.4709C71.6907 15.0673 55.8563 0.148193 36.3236 0.148193C16.7909 0.148193 0.956543 15.0673 0.956543 33.4709C0.956543 51.8745 16.7909 66.7936 36.3236 66.7936Z" fill="#A41919"/>
<path d="M0.939171 36.6617H49.0398L49.7093 33.3551C49.7851 32.9806 49.7723 32.595 49.6716 32.2258C49.571 31.8566 49.3851 31.5128 49.1273 31.2191C48.8694 30.9253 48.5458 30.6889 48.1797 30.5266C47.8137 30.3642 47.4141 30.28 47.0095 30.28H3.27356C2.85901 30.2801 2.44935 30.3643 2.07247 30.527C1.6956 30.6897 1.36037 30.927 1.08965 31.2228C0.818916 31.5186 0.619042 31.8658 0.503646 32.241C0.388249 32.6161 0.360041 33.0103 0.420943 33.3967L0.939171 36.6617Z" fill="#00454A"/>
<path d="M1.31592 39.0363L7.11566 75.6373C7.36575 77.2217 8.21187 78.6685 9.49972 79.7141C10.7876 80.7597 12.4314 81.3344 14.1314 81.3333H34.1265C35.7777 81.3348 37.3777 80.7931 38.6502 79.8017C39.9228 78.8103 40.788 77.4314 41.0966 75.903L48.5597 39.0363H1.31592Z" fill="#00454A"/>
<path d="M19.5167 6.69911C19.5167 6.69911 16.609 10.6735 16.2089 12.0953C15.7048 13.9178 17.8975 17.4218 18.1101 19.219C18.3511 21.2063 16.0514 26.9676 16.0514 26.9676C15.823 27.2956 15.667 27.6399 15.133 27.6399L14.7109 27.6532C14.1769 27.6532 14.6006 27.0047 14.6006 26.6752C14.6006 26.6752 16.1128 22.263 15.9238 19.2784C15.7663 16.8163 13.1972 14.323 13.9816 11.9588C14.4542 10.5192 17.7242 6.55515 17.7242 6.55515C17.9856 6.35305 18.3123 6.24101 18.6504 6.23755L18.9859 6.25833C19.4695 6.28356 19.6175 6.41564 19.5167 6.69911Z" fill="#00454A"/>
<path d="M28.2907 6.69902C28.2907 6.69902 25.3829 10.6735 24.9828 12.0952C24.4788 13.9177 26.6714 17.4217 26.884 19.219C27.1187 21.2032 24.8111 26.9645 24.8111 26.9645C24.5827 27.2925 24.4284 27.6368 23.8944 27.6368L23.4722 27.6502C22.9383 27.6502 23.3604 27.0016 23.3604 26.6722C23.3604 26.6722 24.8726 22.2599 24.6835 19.2754C24.526 16.8132 21.9569 14.3199 22.7414 11.9557C23.2139 10.5162 26.484 6.5521 26.484 6.5521C26.7475 6.34861 27.0773 6.2365 27.418 6.2345L27.7551 6.25527C28.2434 6.28347 28.3899 6.41556 28.2907 6.69902Z" fill="#00454A"/>
<path d="M36.2941 6.69911C36.2941 6.69911 33.3863 10.6735 32.9862 12.0953C32.4822 13.9178 34.6748 17.4218 34.8875 19.219C35.1222 21.2033 32.8146 26.9646 32.8146 26.9646C32.5862 27.2926 32.4302 27.6369 31.8978 27.6369L31.4741 27.6503C30.9417 27.6503 31.3638 27.0017 31.3638 26.6722C31.3638 26.6722 32.876 22.26 32.687 19.2754C32.5294 16.8133 29.9604 14.32 30.7448 11.9558C31.2173 10.5162 34.4874 6.55218 34.4874 6.55218C34.7526 6.3488 35.0842 6.2377 35.4262 6.23755L35.7633 6.25833C36.2468 6.28356 36.3949 6.41564 36.2941 6.69911Z" fill="#00454A"/>
</g>
<defs>
<clipPath id="clip0_224_43">
<rect width="71.3012" height="81.1852" fill="white" transform="translate(0.389648 0.148193)"/>
</clipPath>
</defs>
</svg>
