<svg id="Capa_1" data-name="Capa 1" xmlns="http://www.w3.org/2000/svg" viewBox="0 0 515.11 515.11">
  <circle cx="257.55" cy="257.55" r="257.55" style="fill: #a41b1a"/>
  <path d="M351.86,255.2l2.29,2.3c2.37,2.37-222.8,231.37-222.8,231.37-2.87,2.87-7.1,3.27-9.47.9l-2.3-2.29c-2.36-2.37-2-6.61.9-9.47C120.48,478,349.49,252.84,351.86,255.2Z" transform="translate(-43.21 -100.68)" style="fill: #bed7d5"/>
  <path d="M447.54,284.3l2.29,2.3C452.2,289,227,518,227,518c-2.86,2.86-7.1,3.27-9.47.9l-2.29-2.3c-2.37-2.36-2-6.6.9-9.46C216.17,507.11,445.17,281.94,447.54,284.3Z" transform="translate(-43.21 -100.68)" style="fill: #bed7d5"/>
  <circle cx="279.56" cy="184.94" r="43.52" style="fill: #bed7d5"/>
  <circle cx="214.03" cy="251.6" r="43.52" style="fill: #bed7d5"/>
  <circle cx="149.38" cy="316.09" r="43.52" style="fill: #bed7d5"/>
  <circle cx="379.84" cy="214.03" r="43.52" style="fill: #bed7d5"/>
  <circle cx="314.32" cy="280.7" r="43.52" style="fill: #bed7d5"/>
  <circle cx="249.28" cy="345.19" r="43.52" style="fill: #bed7d5"/>
</svg>
