<svg width="100" height="81" viewBox="0 0 100 81" fill="none" xmlns="http://www.w3.org/2000/svg">
<g clip-path="url(#clip0_224_289)">
<path d="M59.4974 81.0023C81.8665 81.0023 100 62.8693 100 40.5012C100 18.133 81.8665 0 59.4974 0C37.1283 0 18.9946 18.133 18.9946 40.5012C18.9946 62.8693 37.1283 81.0023 59.4974 81.0023Z" fill="#A41919"/>
<path d="M21.9176 34.7761C34.0223 34.7761 43.8352 30.3431 43.8352 24.8746C43.8352 19.4062 34.0223 14.9731 21.9176 14.9731C9.81284 14.9731 0 19.4062 0 24.8746C0 30.3431 9.81284 34.7761 21.9176 34.7761Z" fill="#00454A"/>
<path d="M43.8352 24.8746H0V54.3558H43.8352V24.8746Z" fill="#00454A"/>
<path d="M21.9177 34.7738C32.7985 34.7738 41.6191 30.7895 41.6191 25.8746C41.6191 20.9597 32.7985 16.9753 21.9177 16.9753C11.0369 16.9753 2.21631 20.9597 2.21631 25.8746C2.21631 30.7895 11.0369 34.7738 21.9177 34.7738Z" fill="white"/>
<path d="M21.9176 64.2573C34.0223 64.2573 43.8352 59.8243 43.8352 54.3558C43.8352 48.8874 34.0223 44.4543 21.9176 44.4543C9.81284 44.4543 0 48.8874 0 54.3558C0 59.8243 9.81284 64.2573 21.9176 64.2573Z" fill="#00454A"/>
<path d="M24.7826 30.7044C23.2524 31.3183 11.46 28.758 12.0158 28.5371C11.5251 27.2767 12.6599 25.1886 13.6017 24.2817C14.6505 23.2678 17.8039 21.3331 19.1085 22.1121C19.9991 22.2214 21.8851 22.0005 22.7757 22.1121C23.8989 19.5169 35.4868 22.8655 30.7893 26.6442C31.1521 26.5326 24.9524 30.909 24.7826 30.7044Z" fill="#00454A"/>
<path d="M59.4972 51.5188C71.6019 51.5188 81.4148 47.0857 81.4148 41.6173C81.4148 36.1489 71.6019 31.7158 59.4972 31.7158C47.3924 31.7158 37.5796 36.1489 37.5796 41.6173C37.5796 47.0857 47.3924 51.5188 59.4972 51.5188Z" fill="#00454A"/>
<path d="M81.4148 41.6173H37.5796V71.0985H81.4148V41.6173Z" fill="#00454A"/>
<path d="M59.4973 51.5188C70.3781 51.5188 79.1987 47.5345 79.1987 42.6196C79.1987 37.7047 70.3781 33.7203 59.4973 33.7203C48.6165 33.7203 39.7959 37.7047 39.7959 42.6196C39.7959 47.5345 48.6165 51.5188 59.4973 51.5188Z" fill="white"/>
<path d="M59.4972 81C71.6019 81 81.4148 76.5669 81.4148 71.0985C81.4148 65.6301 71.6019 61.197 59.4972 61.197C47.3924 61.197 37.5796 65.6301 37.5796 71.0985C37.5796 76.5669 47.3924 81 59.4972 81Z" fill="#00454A"/>
<path d="M60.532 47.4587C59.0019 48.0702 50.6837 46.0402 51.2301 45.817C50.7395 44.5589 48.4 41.9405 49.3419 41.0336C50.3906 40.0221 54.0161 39.7826 55.3206 40.5686C56.209 40.6779 54.5137 38.2874 55.402 38.399C56.5276 35.8039 72.1989 38.1223 67.4945 41.9033C72.7687 39.9175 68.6875 48.1447 60.532 47.4587Z" fill="#00454A"/>
</g>
<defs>
<clipPath id="clip0_224_289">
<rect width="100" height="81" fill="white"/>
</clipPath>
</defs>
</svg>
