<svg id="Capa_1" data-name="Capa 1" xmlns="http://www.w3.org/2000/svg" viewBox="0 0 502.38 502.38">
  <circle cx="251.19" cy="251.19" r="251.19" style="fill: #a41b1a"/>
  <g>
    <path d="M102.68,430.44c14.53,55.93,61.28,101.25,122.45,120.5h131.6c61.17-19.25,107.93-64.57,122.46-120.5Z" transform="translate(-44.1 -119.59)" style="fill: #bed7d5"/>
    <path d="M481.13,421.94a144.64,144.64,0,0,0,2.12-14.5H98.61a144.64,144.64,0,0,0,2.12,14.5Z" transform="translate(-44.1 -119.59)" style="fill: #bed7d5"/>
  </g>
  <path d="M375.39,365.7c18.65-10.77,41.15-12.18,59.95-1.66s29.35,30.44,29.93,52l5.9,3.3c5.75-27.38-4.89-55.31-28.44-68.49s-52.92-7.64-73.24,11.58Z" transform="translate(-44.1 -119.59)" style="fill: #bed7d5"/>
  <path d="M393.43,384.06a45.69,45.69,0,0,1,48.78,27.3l12.1,6.77c-1.42-17.76-9.94-33.36-24.65-41.59s-32.45-7.34-48.34.74Z" transform="translate(-44.1 -119.59)" style="fill: #bed7d5"/>
  <path d="M187.57,407.44c14.94-39.37,55.57-67.61,103.36-67.61s88.42,28.24,103.36,67.61h5.5c-5.91-50.63-52.39-90.05-108.86-90.05S188,356.81,182.07,407.44Z" transform="translate(-44.1 -119.59)" style="fill: #bed7d5"/>
  <path d="M214.14,407.44c16.42-23,44.67-38.23,76.79-38.23s60.37,15.21,76.8,38.23h10.08c-12.45-33.21-46.64-57.06-86.88-57.06s-74.43,23.85-86.87,57.06Z" transform="translate(-44.1 -119.59)" style="fill: #bed7d5"/>
  <path d="M251.18,407.44a82.48,82.48,0,0,1,79.5,0h19.73c-14.1-15.85-35.51-26-59.48-26s-45.37,10.12-59.47,26Z" transform="translate(-44.1 -119.59)" style="fill: #bed7d5"/>
  <path d="M120.05,416.52c.08-21.54,10.17-41.7,28.72-52.65s41.08-10.06,60,.27l5.82-3.43c-20.76-18.75-50.26-23.6-73.49-9.88s-33.23,41.9-26.84,69.13Z" transform="translate(-44.1 -119.59)" style="fill: #bed7d5"/>
  <path d="M145,410.16a45.7,45.7,0,0,1,48.13-28.42l11.95-7.06c-16.07-7.7-33.83-8.19-48.35.39s-22.66,24.36-23.67,42.15Z" transform="translate(-44.1 -119.59)" style="fill: #bed7d5"/>
  <path d="M476.8,253l-2.2-2.33a4,4,0,0,0-5.65.06s-60.41,58-110.71,106.85h11.68c50.11-46.28,106.52-98.94,106.52-98.94A4,4,0,0,0,476.8,253Z" transform="translate(-44.1 -119.59)" style="fill: #bed7d5"/>
  <path d="M496.87,268.1l-2-2.49a4,4,0,0,0-5.65-.4s-59.81,48.91-112.4,92.39H390c51.47-40.5,106.08-83.9,106.08-83.9A4,4,0,0,0,496.87,268.1Z" transform="translate(-44.1 -119.59)" style="fill: #bed7d5"/>
</svg>
