<svg id="Capa_1" data-name="Capa 1" xmlns="http://www.w3.org/2000/svg" viewBox="0 0 509.52 509.52">
  <circle cx="254.76" cy="254.76" r="254.76" style="fill: #a41b1a"/>
  <ellipse cx="153.31" cy="196.34" rx="94.25" ry="42.58" style="fill: #bed7d5"/>
  <rect x="59.06" y="196.34" width="188.5" height="126.78" style="fill: #bed7d5"/>
  <ellipse cx="153.31" cy="200.64" rx="84.72" ry="38.27" style="fill: #a41b1a"/>
  <ellipse cx="153.31" cy="323.12" rx="94.25" ry="42.58" style="fill: #bed7d5"/>
  <path d="M189.2,346c-6.58,2.64-57.29-8.37-54.9-9.32-2.11-5.42,2.77-14.4,6.82-18.3,4.51-4.36,18.07-12.68,23.68-9.33,3.83.47,11.94-.48,15.77,0,4.83-11.16,54.66,3.24,34.46,19.49C216.59,328.06,189.93,346.88,189.2,346Z" transform="translate(-23.57 -124.59)" style="fill: #bed7d5"/>
  <ellipse cx="314.91" cy="268.34" rx="94.25" ry="42.58" style="fill: #bed7d5"/>
  <rect x="220.66" y="268.34" width="188.5" height="126.78" style="fill: #bed7d5"/>
  <ellipse cx="314.91" cy="272.65" rx="84.72" ry="38.27" style="fill: #a41b1a"/>
  <ellipse cx="314.91" cy="395.13" rx="94.25" ry="42.58" style="fill: #bed7d5"/>
  <path d="M342.93,418.05c-6.58,2.63-42.35-6.1-40-7.06-2.11-5.41-12.17-16.67-8.12-20.57,4.51-4.35,20.1-5.38,25.71-2,3.82.47-3.47-9.81.35-9.33,4.84-11.16,72.23-1.19,52,15.07C395.55,385.62,378,421,342.93,418.05Z" transform="translate(-23.57 -124.59)" style="fill: #bed7d5"/>
</svg>
