<svg width="17" height="15" viewBox="0 0 17 15" fill="none" xmlns="http://www.w3.org/2000/svg">
<path d="M12.2809 0C11.5442 0.00054802 10.818 0.17508 10.1611 0.509467C9.50415 0.843854 8.93494 1.3287 8.49953 1.92476C8.06413 1.3287 7.49492 0.843854 6.83799 0.509467C6.18106 0.17508 5.45486 0.00054802 4.71819 0C2.11266 0 1.31675e-05 2.14485 1.31675e-05 4.7911C-0.00162932 5.49378 0.150407 6.18828 0.445405 6.82562C0.740402 7.46297 1.17118 8.02765 1.70737 8.47987L7.75091 14.6868C7.84647 14.7859 7.96092 14.8647 8.08745 14.9185C8.21397 14.9723 8.35 15 8.48742 15C8.62485 15 8.76087 14.9723 8.8874 14.9185C9.01392 14.8647 9.12837 14.7859 9.22394 14.6868L15.2926 8.47987C15.8288 8.02765 16.2596 7.46297 16.5546 6.82562C16.8496 6.18828 17.0016 5.49378 17 4.7911C17 2.14485 14.8897 0 12.2809 0ZM8.48742 11.9752L5.08016 8.47987H5.10392L3.51256 6.78875C3.02857 6.35856 2.71244 5.77007 2.62045 5.12801L2.61486 5.08596C2.61486 5.07147 2.61113 5.05699 2.60973 5.04203C2.59982 4.95907 2.59485 4.87559 2.59482 4.79203C2.59482 4.78689 2.59482 4.78222 2.59482 4.77708C2.59482 4.77194 2.59482 4.7682 2.59482 4.76353C2.59482 3.21868 3.91645 1.96681 5.54741 1.96681C6.8928 1.96681 7.40664 3.09812 8.1562 4.08736C8.34999 4.34297 8.67609 4.34951 8.88386 4.10606C9.68187 3.16914 10.1184 1.96728 11.4507 1.96728C13.0412 1.96728 14.339 3.17054 14.4001 4.67755C14.4024 4.7154 14.4033 4.75372 14.4033 4.79203C14.4033 4.83035 14.4033 4.86867 14.4001 4.90652C14.3614 5.83689 13.8489 6.32661 13.0957 7.13829L11.8942 8.4808L8.48742 11.9752Z" fill="#BFD8D5"/>
</svg>
