<svg width="58" height="59" viewBox="0 0 58 59" fill="none" xmlns="http://www.w3.org/2000/svg">
<path d="M0 10C0 4.47715 4.47715 0 10 0H48C53.5229 0 58 4.47715 58 10V49C58 54.5228 53.5228 59 48 59H10C4.47715 59 0 54.5228 0 49V10Z" fill="#BFD8D5"/>
<path d="M37.6781 11.8C35.9873 11.8013 34.3206 12.2007 32.8128 12.966C31.305 13.7312 29.9986 14.8408 28.9992 16.2048C27.9999 14.8408 26.6935 13.7312 25.1857 12.966C23.6779 12.2007 22.0111 11.8013 20.3203 11.8C14.3402 11.8 9.49124 16.7085 9.49124 22.7644C9.48747 24.3725 9.83642 25.9618 10.5135 27.4204C11.1906 28.8789 12.1793 30.1712 13.4099 31.2061L27.281 45.4107C27.5003 45.6374 27.763 45.8176 28.0534 45.9408C28.3438 46.0639 28.656 46.1273 28.9714 46.1273C29.2868 46.1273 29.599 46.0639 29.8894 45.9408C30.1799 45.8176 30.4425 45.6374 30.6619 45.4107L44.5907 31.2061C45.8213 30.1712 46.81 28.8789 47.4871 27.4204C48.1642 25.9618 48.5131 24.3725 48.5094 22.7644C48.5094 16.7085 43.6658 11.8 37.6781 11.8ZM28.9714 39.2051L21.1511 31.2061H21.2057L17.5532 27.336C16.4423 26.3515 15.7168 25.0048 15.5056 23.5354L15.4928 23.4392C15.4928 23.406 15.4842 23.3729 15.481 23.3387C15.4583 23.1488 15.4469 22.9578 15.4468 22.7665C15.4468 22.7548 15.4468 22.7441 15.4468 22.7323C15.4468 22.7206 15.4468 22.712 15.4468 22.7013C15.4468 19.1659 18.4802 16.3011 22.2236 16.3011C25.3115 16.3011 26.4908 18.89 28.2112 21.1539C28.656 21.7389 29.4045 21.7538 29.8813 21.1967C31.7129 19.0526 32.7148 16.3021 35.7728 16.3021C39.4231 16.3021 42.402 19.0558 42.542 22.5045C42.5474 22.5912 42.5495 22.6789 42.5495 22.7665C42.5495 22.8542 42.5495 22.9419 42.542 23.0285C42.4533 25.1577 41.2771 26.2784 39.5482 28.1359L36.7907 31.2082L28.9714 39.2051Z" fill="#A41919"/>
</svg>
