<svg width="95" height="151" viewBox="0 0 95 151" fill="none" xmlns="http://www.w3.org/2000/svg">
<path d="M91.4545 62.143C90.9013 70.5078 90.4587 79.3157 86.3263 87.4754C85.4246 89.2481 86.3983 91.2479 86.4702 93.1313C86.5808 96.0174 85.4468 97.7291 83.0293 99.1362C79.1296 101.409 74.9356 103.134 70.5658 104.26C68.8399 104.709 67.988 105.368 68.259 107.229C68.3585 108.056 68.3585 108.891 68.259 109.717C67.9271 113.184 65.1777 114.896 61.9526 113.594C61.2 113.251 60.4734 112.853 59.7786 112.403C56.4594 110.47 53.4334 107.844 49.0189 109.34C48.2658 109.581 47.4713 109.665 46.6845 109.587C45.8977 109.509 45.1353 109.27 44.444 108.886C43.5479 108.376 42.873 108.997 42.1759 109.44C40.0461 110.719 37.9606 112.088 35.77 113.262C32.0746 115.24 28.5508 113.323 28.7997 109.146C29.0044 105.673 27.7652 104.382 24.5235 103.673C20.7563 102.848 17.3596 100.903 13.8856 99.1583C10.0409 97.2527 10.4392 93.9899 10.7822 90.849C11.009 88.7828 10.4171 87.1818 9.70897 85.387C5.6264 75.0391 4.91831 64.2592 6.15747 53.3352C7.59577 40.6607 13.0669 29.1661 17.072 17.245C18.3886 13.323 19.838 9.43974 21.2984 5.57314C22.6814 1.92811 25.3367 -0.00519217 28.7167 0.000347383C32.0967 0.00588694 34.8406 1.90595 36.2402 5.47896C37.4461 8.55896 38.5968 11.6666 39.6589 14.802C40.1347 16.2201 40.8427 16.835 42.4249 16.7907C46.4743 16.6799 50.5347 16.6799 54.5951 16.7907C56.2105 16.8406 56.8577 16.1426 57.3334 14.7522C58.4398 11.5337 59.6015 8.33183 60.8794 5.17429C62.1573 2.01674 64.5637 0.188691 68.0709 0.0169654C69.6563 -0.0915136 71.2336 0.322427 72.5621 1.19562C73.8905 2.06881 74.8972 3.35328 75.4284 4.85299C80.4072 19.4663 86.8242 33.6033 90.1379 48.7706C91.0241 53.1725 91.4652 57.6526 91.4545 62.143ZM11.5622 60.4812C11.684 66.5097 12.3487 72.5149 13.5481 78.4238C15.1137 86.085 20.3358 89.8519 27.2065 92.0954C28.0805 92.3835 28.5784 92.3835 29.1703 91.3808C30.8299 88.5445 33.0427 88.0183 35.8806 89.6137C38.1321 90.8656 40.3061 92.2561 42.5189 93.58C43.144 93.9512 43.7027 94.4331 44.5104 94.4276C50.3687 94.3611 56.1275 94.0509 60.7909 89.7688C61.0091 89.5988 61.2515 89.4625 61.5101 89.3644C64.0658 88.1568 66.2177 88.7107 67.6782 91.0928C68.1373 91.8406 68.3088 92.594 69.465 92.2007C75.5501 90.0402 80.9659 87.2982 82.8136 80.2906C85.48 70.1588 86.3596 59.9715 84.0915 49.6901C80.9051 35.2873 74.7425 21.8151 70.0624 7.87758C69.7527 6.95802 69.3046 6.16586 68.1816 6.15478C67.0586 6.1437 66.616 7.04666 66.2897 7.89421C64.7518 11.9325 63.2028 15.9653 61.7811 20.048C61.1007 22.0034 59.8947 22.8178 57.8645 22.7734C51.5968 22.7236 45.3347 22.707 39.0559 22.7734C36.9759 22.8011 35.8253 21.9259 35.1504 20.0037C33.7895 16.198 32.3291 12.42 30.9074 8.63096C30.4925 7.52305 30.2767 6.15478 28.7389 6.13816C27.201 6.12155 26.9631 7.51197 26.5703 8.61435C23.1184 18.2162 19.672 27.8181 16.2311 37.42C13.4209 45.2862 11.6839 53.3352 11.5622 60.4646V60.4812Z" fill="#DFDFDF"/>
<path d="M49.3898 55.9554C51.8073 55.7448 54.9217 55.5122 56.526 59.2791C57.1788 60.8025 57.1677 61.9159 55.9009 62.9241C54.6341 63.9323 53.2456 64.9017 51.9566 65.9376C49.8766 67.6272 50.0149 69.9538 52.1668 71.588C54.1362 73.0836 55.9452 74.5018 58.252 71.9813C59.3971 70.7404 60.4371 71.9259 61.2337 72.8067C62.1963 73.8758 61.4273 74.668 60.6196 75.3438C59.6294 76.1692 58.5728 76.9115 57.5771 77.7258C56.3379 78.7395 54.9715 78.9334 53.843 77.8033C50.2528 74.186 46.8009 74.1196 43.1719 77.759C41.9549 78.9888 40.5221 78.7395 39.2221 77.5984C38.4642 76.9281 37.6123 76.3741 36.8323 75.7316C35.8531 74.9283 34.5034 74.2082 35.8089 72.6571C36.86 71.4052 37.9774 71.1116 39.3272 72.3303C40.3285 73.2388 41.3298 74.2747 42.8621 72.9396C44.3945 71.6046 46.9779 70.9897 46.3694 68.0094C46.3295 67.652 46.2172 67.3065 46.0393 66.9941C45.8614 66.6817 45.6217 66.4089 45.3349 66.1925C44.3004 65.428 43.2991 64.6192 42.2757 63.8381C41.031 62.8909 39.3991 61.9935 40.2068 60.1156C41.0587 58.1324 41.9493 55.9277 44.7485 55.9443C46.0485 55.9609 47.3319 55.9554 49.3898 55.9554Z" fill="#DFDFDF"/>
<path d="M37.4295 44.8541C37.4295 45.7737 37.3908 46.6932 37.4295 47.6239C37.5346 49.5073 36.8763 50.5543 34.7963 50.5654C32.7163 50.5765 31.7095 49.8231 31.8146 47.6571C31.9086 45.8235 31.881 43.9844 31.8146 42.1508C31.7537 40.0624 32.8656 39.4863 34.7576 39.4973C36.6495 39.5084 37.5235 40.2175 37.4074 42.1176C37.3852 43.015 37.424 43.9345 37.4295 44.8541Z" fill="#DFDFDF"/>
<path d="M65.139 45.1366C65.139 45.962 65.0781 46.7985 65.139 47.6128C65.316 49.7621 64.3313 50.5654 62.2236 50.5321C60.1989 50.5044 59.43 49.607 59.5185 47.6516C59.596 45.818 59.5683 43.9788 59.5185 42.1452C59.4632 40.0624 60.6249 39.453 62.4726 39.4752C64.3202 39.4973 65.2385 40.1787 65.1224 42.1065C65.056 43.1147 65.1224 44.1284 65.1224 45.1366H65.139Z" fill="#DFDFDF"/>
<path d="M68.0103 22.7347C64.7907 22.7347 64.6303 22.5131 65.5873 19.4442C66.0797 17.8709 66.5333 16.2811 67.1473 14.7522C67.6508 13.4836 68.4142 13.4559 68.9784 14.7522C69.5427 16.0484 70.0516 17.4832 70.5605 18.857C71.9823 22.635 71.9048 22.7402 68.0103 22.7347Z" fill="#DFDFDF"/>
<path d="M28.584 22.7236C25.298 22.7236 25.0601 22.358 26.2218 19.2503C26.6976 17.9651 27.1457 16.6744 27.6823 15.4169C27.9423 14.802 27.9367 13.7938 28.9436 13.8991C29.8397 13.9877 29.8674 14.9239 30.0997 15.5609C30.5312 16.7575 30.8908 17.9817 31.267 19.2004C32.2959 22.5463 32.1521 22.7457 28.584 22.7236Z" fill="#DFDFDF"/>
<path d="M2.57788 131C2.05788 130.64 0.785534 129.72 0.785534 129.044C2.37873 126.175 5.32726 124.297 8.1928 122.862C8.14778 122.544 8.12192 122.224 8.11535 121.904C8.11535 118.713 11.5396 116.397 13.852 114.702C14.7647 115.301 17.315 115.578 17.315 117.134C17.3272 117.287 17.3077 117.441 17.2576 117.585C17.2075 117.73 17.1279 117.863 17.024 117.976C16.92 118.088 16.7938 118.178 16.6535 118.239C16.5131 118.3 16.3616 118.331 16.2086 118.331C15.8103 118.331 15.412 118.176 15.0137 118.176C13.3541 118.176 9.59238 120.048 9.59238 121.92C9.60107 122.096 9.62889 122.271 9.67536 122.441C10.0737 122.48 10.4332 122.519 10.8315 122.519C11.2298 122.519 11.783 122.48 12.303 122.48C13.4592 122.48 15.0137 122.602 15.2128 124.036C14.892 124.873 13.2213 125.698 12.5022 126.252C12.0171 126.673 11.5893 127.155 11.2298 127.687C10.8064 128.201 10.47 128.781 10.2341 129.404C10.1898 129.919 10.1898 130.479 10.1898 131.038V132.357C10.1898 132.795 10.1898 133.232 10.1511 133.631C11.783 132.434 14.455 129.842 16.5626 129.842C18.1614 129.842 19.1129 130.917 19.4724 132.396C21.0636 129.574 23.5928 127.4 26.6197 126.252C27.4243 125.893 28.2897 125.69 29.1699 125.654C30.6414 125.654 35.255 128.047 35.255 129.681C35.2468 129.906 35.189 130.127 35.0857 130.327C34.9824 130.527 34.8362 130.702 34.6576 130.839C33.8997 131.393 32.6219 131.637 31.7091 131.947C29.7176 132.662 27.9252 133.703 25.812 134.163C26.7303 132.645 28.6388 131.487 28.6388 129.493C28.6388 128.457 27.5657 128.097 26.6861 128.097C21.5912 128.097 20.955 137.193 19.1184 137.392C16.2141 136.395 18.8031 131.249 15.5337 131.249C13.6252 131.249 10.9532 135.237 10.1566 136.789C10.4495 138.583 10.6232 140.394 10.6766 142.212C10.6766 143.874 9.71962 148.278 7.84982 148.599C5.81407 148.001 5.63705 142.732 5.05619 140.976C4.06598 141.813 2.58895 144.128 1.95277 144.527C1.80537 144.608 1.63968 144.65 1.47149 144.649C0.796593 144.649 0 143.691 0 143.054C0 140.661 3.14767 136.273 4.3813 134.19C4.14342 133.083 3.8281 131.559 3.18639 130.601L2.57788 131ZM7.5179 128.723C7.76865 127.978 7.903 127.199 7.9162 126.413C6.44471 127.371 4.65236 128.767 4.65236 130.678C4.67909 131.443 4.85381 132.196 5.16683 132.894C6.00215 132.119 7.08088 129.764 7.5179 128.723ZM6.24556 140.494C6.37612 141.572 6.77148 142.599 7.3962 143.486C7.85409 142.488 8.05929 141.392 7.99365 140.295C7.99365 139.774 7.95493 139.254 7.9162 138.738C7.31759 139.282 6.75923 139.869 6.24556 140.494Z" fill="#DFDFDF"/>
<path d="M62.8042 136.816C62.8042 135.98 64.7514 133.426 65.3102 132.628C65.1308 133.565 65.0108 134.512 64.9506 135.465C70.5268 129.836 74.1945 122.857 79.3336 116.996C79.0534 116.585 78.6251 116.299 78.1387 116.198C78.8619 115.809 79.5206 115.31 80.0915 114.719C81.043 115.439 82.4813 115.04 82.9571 116.514C80.8881 118.868 78.974 121.344 77.0213 123.776C75.1128 126.086 65.4042 138.932 63.2412 139.093C62.9782 138.361 62.8307 137.593 62.8042 136.816ZM79.2507 132.351V132.268C79.2507 131.232 78.537 130.274 78.537 129.199C78.5406 128.909 78.6086 128.623 78.7362 128.363C78.183 127.842 77.6574 127.255 77.143 126.701C78.3379 126.302 78.6532 125.305 79.5715 124.823C80.3681 125.743 83.2779 126.657 83.2779 128.014V128.202C81.4026 128.324 81.563 130.318 80.8881 131.471C81.126 132.578 83.3166 133.869 83.3166 135.265C83.32 135.484 83.2786 135.7 83.1949 135.902C83.1435 135.968 83.0769 136.021 83.0008 136.055C82.9247 136.09 82.8414 136.106 82.7579 136.102C81.6515 136.102 80.2464 135.548 78.5758 135.548C77.7946 135.544 77.0216 135.707 76.3077 136.024C75.2677 136.506 74.9911 137.265 74.7919 138.34C74.3936 140.555 73.7132 142.804 73.7132 145.081C73.6741 145.479 73.7449 145.879 73.9179 146.239C74.9911 145.558 81.2034 140.533 81.8396 139.736C82 139.536 82.5588 138.777 82.8353 138.777C86.3813 138.777 89.4128 141.292 91.2826 144.045C91.2826 145.281 90.3256 145.757 89.2137 145.757C87.6979 145.757 85.5073 145.004 83.5158 144.921C84.4116 144.289 85.2046 143.523 85.8669 142.649C85.3536 141.816 84.676 141.096 83.8754 140.533C83.7716 140.501 83.6629 140.488 83.5545 140.494C80.8439 140.494 76.4625 146.555 74.7919 148.671C74.3611 149.294 73.7486 149.768 73.0383 150.028C72.12 149.707 71.3787 148.394 71.0855 147.513C71.3234 143.807 72.1642 140.173 72.9608 136.545C73.1157 135.786 72.9996 135.071 73.2762 134.274C73.356 134.063 73.5121 133.891 73.7132 133.792L74.1945 133.742C75.0045 133.742 75.81 133.863 76.5843 134.102C77.5808 133.801 78.4849 133.252 79.2119 132.506L79.2507 132.351ZM88.2567 126.369C85.4243 124.413 81.3251 125.449 78.7362 123.217C80.169 122.541 82.3596 122.458 83.9141 122.458C87.1392 122.458 90.8456 122.496 93.4345 124.674C94.104 125.138 94.6401 125.77 94.989 126.507C94.9244 126.838 94.7346 127.131 94.4594 127.325C94.1842 127.519 93.8448 127.599 93.512 127.549C92.3558 127.549 91.2052 127.305 90.0103 127.305C88.8627 127.306 87.7167 127.387 86.5805 127.549L88.2567 126.369Z" fill="#DFDFDF"/>
</svg>
