<svg width="330" height="329" viewBox="0 0 330 329" fill="none" xmlns="http://www.w3.org/2000/svg">
<rect x="165" width="232.004" height="232.004" transform="rotate(45 165 0)" fill="#DFDFDF" fill-opacity="0.3"/>
<rect x="165" y="3.53553" width="227.004" height="227.004" transform="rotate(45 165 3.53553)" stroke="black" stroke-opacity="0.6" stroke-width="5"/>
<path d="M121.239 218.676C119.779 217.667 116.206 215.089 116.206 213.195C120.68 205.153 128.96 199.89 137.006 195.869C136.88 194.979 136.807 194.082 136.789 193.183C136.789 184.24 146.405 177.751 152.898 173C155.461 174.677 162.622 175.453 162.622 179.816C162.657 180.244 162.602 180.674 162.461 181.08C162.321 181.486 162.097 181.858 161.805 182.174C161.513 182.489 161.159 182.74 160.765 182.911C160.371 183.083 159.945 183.171 159.515 183.169C158.397 183.169 157.279 182.734 156.16 182.734C151.5 182.734 140.936 187.982 140.936 193.23C140.961 193.723 141.039 194.212 141.169 194.689C142.288 194.798 143.298 194.906 144.416 194.906C145.535 194.906 147.088 194.798 148.548 194.798C151.795 194.798 156.16 195.139 156.719 199.16C155.818 201.505 151.127 203.818 149.107 205.37C147.745 206.548 146.544 207.9 145.535 209.392C144.345 210.832 143.401 212.458 142.738 214.204C142.614 215.648 142.614 217.216 142.614 218.784V222.479C142.614 223.706 142.614 224.932 142.505 226.05C147.088 222.697 154.591 215.431 160.51 215.431C164.999 215.431 167.671 218.443 168.681 222.588C173.149 214.679 180.251 208.586 188.751 205.37C191.011 204.364 193.441 203.795 195.912 203.694C200.044 203.694 213 210.401 213 214.981C212.977 215.612 212.814 216.23 212.524 216.791C212.234 217.352 211.824 217.842 211.322 218.226C209.194 219.778 205.606 220.461 203.043 221.331C197.45 223.333 192.417 226.252 186.483 227.541C189.062 223.287 194.421 220.042 194.421 214.453C194.421 211.55 191.407 210.54 188.937 210.54C174.63 210.54 172.844 236.033 167.687 236.592C159.531 233.798 166.801 219.374 157.62 219.374C152.261 219.374 144.758 230.553 142.521 234.9C143.343 239.928 143.831 245.006 143.981 250.099C143.981 254.757 141.294 267.1 136.043 268C130.327 266.323 129.829 251.559 128.198 246.637C125.418 248.981 121.27 255.471 119.484 256.589C119.07 256.816 118.604 256.934 118.132 256.93C116.237 256.93 114 254.244 114 252.459C114 245.752 122.839 233.456 126.303 227.618C125.635 224.513 124.75 220.244 122.948 217.558L121.239 218.676ZM135.111 212.295C135.815 210.207 136.192 208.023 136.23 205.821C132.097 208.507 127.064 212.419 127.064 217.775C127.139 219.919 127.63 222.028 128.509 223.985C130.855 221.812 133.884 215.214 135.111 212.295ZM131.538 245.286C131.905 248.305 133.015 251.186 134.769 253.67C136.055 250.872 136.631 247.801 136.447 244.727C136.447 243.268 136.338 241.809 136.23 240.365C134.549 241.89 132.981 243.534 131.538 245.286Z" fill="#A41919"/>
<path d="M114 113.589C114 111.03 119.99 103.219 121.708 100.779C121.157 103.645 120.787 106.543 120.602 109.455C137.755 92.2397 149.036 70.8905 164.844 52.9639C163.982 51.7077 162.665 50.8331 161.169 50.524C163.393 49.3332 165.419 47.8072 167.175 46C170.102 48.2027 174.526 46.9827 175.99 51.4898C169.626 58.6909 163.738 66.2648 157.731 73.7032C151.861 80.7688 121.998 120.062 115.344 120.553C114.535 118.315 114.082 115.966 114 113.589ZM164.589 99.9322V99.6781C164.589 96.5096 162.394 93.5783 162.394 90.2912C162.405 89.4036 162.614 88.5297 163.007 87.7327C161.305 86.14 159.688 84.3439 158.106 82.6495C161.781 81.4296 162.751 78.3797 165.576 76.9055C168.026 79.7182 176.977 82.514 176.977 86.6652V87.2413C171.208 87.6141 171.702 93.7138 169.626 97.2382C170.358 100.627 177.096 104.575 177.096 108.845C177.106 109.513 176.979 110.176 176.722 110.793C176.563 110.995 176.358 111.156 176.124 111.262C175.89 111.368 175.634 111.417 175.377 111.403C171.974 111.403 167.652 109.709 162.513 109.709C160.11 109.699 157.733 110.195 155.536 111.166C152.337 112.64 151.487 114.961 150.874 118.248C149.649 125.026 147.556 131.905 147.556 138.869C147.436 140.085 147.653 141.31 148.185 142.41C151.487 140.326 170.596 124.958 172.553 122.518C173.046 121.908 174.765 119.587 175.615 119.587C186.523 119.587 195.848 127.28 201.599 135.701C201.599 139.479 198.655 140.936 195.235 140.936C190.573 140.936 183.834 138.632 177.709 138.378C180.464 136.447 182.903 134.103 184.94 131.431C183.362 128.881 181.277 126.679 178.815 124.958C178.495 124.861 178.161 124.82 177.828 124.84C169.49 124.84 156.013 143.376 150.874 149.849C149.549 151.753 147.665 153.203 145.48 154C142.655 153.017 140.375 149.002 139.473 146.307C140.205 134.972 142.791 123.857 145.242 112.759C145.718 110.437 145.361 108.252 146.212 105.812C146.457 105.169 146.937 104.643 147.556 104.338L149.036 104.185C151.528 104.185 154.006 104.557 156.387 105.286C159.453 104.367 162.234 102.688 164.47 100.407L164.589 99.9322ZM192.291 81.6329C183.579 75.6517 170.97 78.8202 163.007 71.9918C167.414 69.9247 174.152 69.6705 178.934 69.6705C188.854 69.6705 200.255 69.7891 208.218 76.4481C210.278 77.8686 211.927 79.8025 213 82.0565C212.801 83.0682 212.218 83.9644 211.371 84.558C210.524 85.1515 209.48 85.3966 208.457 85.2419C204.9 85.2419 201.361 84.4964 197.685 84.4964C194.156 84.5001 190.63 84.7493 187.135 85.2419L192.291 81.6329Z" fill="#A41919"/>
</svg>
